<?xml version="1.0" encoding="utf-8" ?><svg xmlns="http://www.w3.org/2000/svg" xmlns:xlink="http://www.w3.org/1999/xlink" width="300" height="300" viewBox="0 0 300 300"><path fill="#902D90" transform="matrix(0.292969 0 0 0.292969 0.00195312 0)" d="M397.214 485.6C405.151 484.13 425.582 474.465 432.109 478.294C432.476 481.437 433.509 493.369 434.988 495.403L435.599 495.354C465.862 481.584 500.42 511.496 515.912 534.777C518.716 538.991 523.59 544.736 524.832 549.53L526.654 550.015C541.154 527.931 571.208 503.997 599.296 513.536C602.393 515.982 605.008 518.119 607.6 521.131C612.371 523.424 615.41 526.627 618.958 528.459C621.71 528.525 625.503 528.435 626.864 531.408C626.012 534.738 625.573 536.775 625.081 540.169C625.658 543.46 627.568 554.788 627.44 557.82C627.705 560.744 628.296 567.223 627.797 570.099C624.471 598.192 600.663 629.897 573.497 638.748C568.748 640.41 561.024 642.107 556.097 642.06C544.091 644.197 530.657 637.771 520.348 632.605C518.485 635.509 516.462 637.907 513.676 639.979C501.053 651.548 491.212 655.775 473.942 650.146C470.779 649.115 459.732 644.674 458.058 642.353C459.027 642.073 459.14 642.175 459.884 641.617C449.15 638.416 439.847 635.106 431.365 627.385C407.631 605.779 405.076 585.765 402.565 556.464C401.257 547.913 401.952 540.815 403.24 532.358C404.202 528.068 404.562 526.668 403.288 522.341C394.923 506.3 393.851 503.794 397.214 485.6ZM587.218 548.649L587.083 545.673C585.597 545.093 581.022 547.138 579.324 547.877C562.206 555.324 552.077 569.003 545.471 585.986C543.532 591.076 541.664 596.193 539.866 601.335C539.977 601.578 540.398 602.049 540.588 602.283C546.635 603.001 558.119 597.102 562.904 593.177C577.211 581.444 585.094 566.819 587.218 548.649Z"/><path fill="#FEFEFE" transform="matrix(0.292969 0 0 0.292969 0.00195312 0)" d="M397.214 485.6C405.151 484.13 425.582 474.465 432.109 478.294C432.476 481.437 433.509 493.369 434.988 495.403L435.599 495.354C436.26 498.252 436.851 502.44 437.09 505.442C437.582 507.493 437.617 508.34 438.827 509.991C453.222 510.271 472.912 525.506 482.643 535.745C502.518 556.658 518.306 587.583 518.507 616.957C518.558 624.396 515.862 632.964 513.676 639.979C501.053 651.548 491.212 655.775 473.942 650.146C470.779 649.115 459.732 644.674 458.058 642.353C459.027 642.073 459.14 642.175 459.884 641.617C449.15 638.416 439.847 635.106 431.365 627.385C407.631 605.779 405.076 585.765 402.565 556.464C401.257 547.913 401.952 540.815 403.24 532.358C404.202 528.068 404.562 526.668 403.288 522.341C394.923 506.3 393.851 503.794 397.214 485.6Z"/><path fill="#30469D" transform="matrix(0.292969 0 0 0.292969 0.00195312 0)" d="M397.214 485.6C405.151 484.13 425.582 474.465 432.109 478.294C432.476 481.437 433.509 493.369 434.988 495.403L435.599 495.354C436.26 498.252 436.851 502.44 437.09 505.442C437.582 507.493 437.617 508.34 438.827 509.991C439.063 512.722 439.573 515.159 437.838 517.345C436.015 516.817 437.569 516.701 436.558 516.189C436.473 516.146 434.125 517.1 433.901 517.2C429.596 519.126 427.003 519.824 422.32 520.672C416.112 521.796 410.14 521.225 404.014 521.326C403.562 521.333 403.49 521.859 403.288 522.341C394.923 506.3 393.851 503.794 397.214 485.6Z"/><path fill="#121754" transform="matrix(0.292969 0 0 0.292969 0.00195312 0)" d="M428.57 490.348C429.459 491.47 432.419 510.329 432.388 512.615C430.224 506.502 428.393 496.794 428.57 490.348Z"/><path fill="#F3F2F7" transform="matrix(0.292969 0 0 0.292969 0.00195312 0)" d="M403.24 532.358C404.391 533.939 404.954 534.68 404.45 536.754C403.598 540.849 403.602 551.422 404.393 555.532C403.858 555.836 403.103 556.345 402.565 556.464C401.257 547.913 401.952 540.815 403.24 532.358Z"/><path fill="#7A777E" transform="matrix(0.292969 0 0 0.292969 0.00195312 0)" d="M404.393 555.532C403.602 551.422 403.598 540.849 404.45 536.754C405.278 541.526 405.355 550.798 404.393 555.532Z"/><path fill="#EE519A" transform="matrix(0.292969 0 0 0.292969 0.00195312 0)" d="M409.77 565.584C412.131 555.775 422.164 551.81 431.342 554.318C443.597 557.668 453.23 568.854 459.242 579.538C466.344 592.16 472.197 612.77 462.894 625.601C448.038 642.95 424.904 621.319 417.165 607.484C409.52 593.819 405.906 580.998 409.77 565.584Z"/><path transform="matrix(0.292969 0 0 0.292969 0.00195312 0)" d="M409.77 565.584C411.087 569.091 409.466 575.903 410.206 580.9C413.423 602.612 430.659 630.63 455.688 628.676C457.268 628.553 460.6 625.664 462.894 625.601C448.038 642.95 424.904 621.319 417.165 607.484C409.52 593.819 405.906 580.998 409.77 565.584Z"/><path fill="#30469D" transform="matrix(0.292969 0 0 0.292969 0.00195312 0)" d="M443.547 532.231C477.132 547.488 501.655 580.846 498.47 618.652C495.635 635.333 487.232 640.581 470.815 640.534C473.214 638.63 477.134 635.699 479.115 633.593C479.853 626.595 480.332 621.309 487.13 617.781C487.625 613.325 487.933 597.651 485.857 594.658L484.642 594.202C483.461 590.347 483.537 586.656 482.1 582.981C474.096 562.507 454.733 550.557 443.547 532.231Z"/><path fill="#902D90" transform="matrix(0.292969 0 0 0.292969 0.00195312 0)" d="M480.026 633.185C488.697 634.917 493.352 624.467 498.166 618.993L498.47 618.652C495.635 635.333 487.232 640.581 470.815 640.534C473.214 638.63 477.134 635.699 479.115 633.593L480.026 633.185Z"/><path fill="#F3F2F7" transform="matrix(0.292969 0 0 0.292969 0.00195312 0)" d="M479.115 633.593C479.853 626.595 480.332 621.309 487.13 617.781C485.574 624.469 484.505 627.737 480.026 633.185L479.115 633.593Z"/><path fill="#EE519A" transform="matrix(0.292969 0 0 0.292969 0.00195312 0)" d="M526.654 550.015C541.154 527.931 571.208 503.997 599.296 513.536C602.393 515.982 605.008 518.119 607.6 521.131C613.056 541.468 609.863 559.032 599.126 577.002C583.582 603.016 561.523 622.019 531.237 626.332C531.946 625.446 534.722 622.076 534.863 621.137C537.156 605.937 538.178 591.291 534.236 576.216L535.208 577.093L535.781 574.864C534.95 571.873 533.01 566.763 533.633 563.95C531.013 559.685 530.149 554.71 526.654 550.015ZM587.218 548.649L587.083 545.673C585.597 545.093 581.022 547.138 579.324 547.877C562.206 555.324 552.077 569.003 545.471 585.986C543.532 591.076 541.664 596.193 539.866 601.335C539.977 601.578 540.398 602.049 540.588 602.283C546.635 603.001 558.119 597.102 562.904 593.177C577.211 581.444 585.094 566.819 587.218 548.649Z"/><path fill="#30469D" transform="matrix(0.292969 0 0 0.292969 0.00195312 0)" d="M533.633 563.95C539.387 555.474 544.351 547.642 552.608 540.331C559.444 534.277 575.309 524.251 583.484 534.227C586.36 537.737 588.047 543.986 587.218 548.649L587.083 545.673C585.597 545.093 581.022 547.138 579.324 547.877C562.206 555.324 552.077 569.003 545.471 585.986C543.532 591.076 541.664 596.193 539.866 601.335C538.782 597.451 538.625 590.757 538.093 586.511C537.528 581.997 536.928 579.333 535.781 574.864C534.95 571.873 533.01 566.763 533.633 563.95Z"/><path fill="#CA4D8A" transform="matrix(0.292969 0 0 0.292969 0.00195312 0)" d="M590.384 517.41C601.966 521.026 603.9 534.654 603.861 545.105C602.707 543.797 602.691 539.235 602.523 537.304C601.647 527.242 596.865 523.671 590.384 517.41Z"/><path fill="#CA4D8A" transform="matrix(0.292969 0 0 0.292969 0.00195312 0)" d="M599.2 561.81L599.475 562.653C598.071 569.984 588.926 583.135 584.484 589.455L583.852 589.127C584.507 587.597 589.209 581.093 590.522 579.039C594.455 572.887 596.403 568.405 599.2 561.81Z"/><path fill="#CA4D8A" transform="matrix(0.292969 0 0 0.292969 0.00195312 0)" d="M568.317 604.519L568.555 604.662L568.437 605.455C566.145 607.425 564.782 608.406 562.314 610.093C562.114 609.919 562.257 610.08 561.849 609.303C563.864 607.364 565.997 606.073 568.317 604.519Z"/><path fill="#EE519A" transform="matrix(0.292969 0 0 0.292969 0.00195312 0)" d="M556.097 642.06C554.348 641.938 552.702 642.202 551.669 641.279C553.218 639.99 557.801 638.893 559.751 638.148C593.198 625.382 616.369 593.169 625.375 559.362C625.691 558.177 626.442 558.149 627.44 557.82C627.705 560.744 628.296 567.223 627.797 570.099C624.471 598.192 600.663 629.897 573.497 638.748C568.748 640.41 561.024 642.107 556.097 642.06Z"/><path fill="#FEFEFE" transform="matrix(0.292969 0 0 0.292969 0.00195312 0)" d="M573.497 638.748C574.958 636.397 587.038 629.066 591 625.763C597.28 620.569 602.954 614.682 607.913 608.214C613.437 601.009 618.024 593.132 621.565 584.773C622.451 582.669 626.747 569.028 627.204 568.461L627.797 570.099C624.471 598.192 600.663 629.897 573.497 638.748Z"/><path fill="#EE519A" transform="matrix(0.292969 0 0 0.292969 0.00195312 0)" d="M437.09 505.442C447.643 505.682 463.272 513.318 471.487 519.264C503.071 542.122 527.988 585.709 521.547 625.546C521.237 627.458 520.403 630.827 520.348 632.605C518.485 635.509 516.462 637.907 513.676 639.979C515.862 632.964 518.558 624.396 518.507 616.957C518.306 587.583 502.518 556.658 482.643 535.745C472.912 525.506 453.222 510.271 438.827 509.991C437.617 508.34 437.582 507.493 437.09 505.442Z"/><path fill="#CA4D8A" transform="matrix(0.292969 0 0 0.292969 0.00195312 0)" d="M524.832 549.53L526.654 550.015C530.149 554.71 531.013 559.685 533.633 563.95C533.01 566.763 534.95 571.873 535.781 574.864L535.208 577.093L534.236 576.216C532.689 572.01 523.872 552.118 524.832 549.53Z"/><path fill="#FEFEFE" transform="matrix(0.292969 0 0 0.292969 0.00195312 0)" d="M618.958 528.459C621.71 528.525 625.503 528.435 626.864 531.408C626.012 534.738 625.573 536.775 625.081 540.169C623.016 537.431 620.486 531.735 618.958 528.459Z"/><path fill="#FEFEFE" transform="matrix(0.292969 0 0 0.292969 0.00195312 0)" d="M498.771 346.979C506.236 346.029 513.061 345.199 520.614 345.079C574.435 344.226 605.236 393.363 620.51 438.7C623.243 446.812 625.583 455.362 626.722 463.985C626.296 466.011 626.681 465.992 625.42 466.844C624.306 466.936 623.211 467.146 622.105 467.326C616.827 470.021 606.146 470.676 599.27 472.879C592.849 470.605 589.299 458.822 587.173 452.725C572.97 411.976 542.611 369.047 495.176 368.648C485.011 372.464 474.745 390.613 470.372 399.892C462.949 415.645 462.429 434.017 442.919 439.921C440.305 440.384 439.124 440.728 436.451 440.265L434.796 440.839C431.985 454.611 431.724 464.46 432.109 478.294C425.582 474.465 405.151 484.13 397.214 485.6C398.434 474.909 399.086 464.162 399.167 453.402C398.961 444.673 400.328 438.192 402.973 429.855C416.647 386.77 452.552 351.108 498.771 346.979Z"/><path fill="#30469D" transform="matrix(0.292969 0 0 0.292969 0.00195312 0)" d="M495.176 368.648C502.872 363.255 508.904 359.569 518.344 357.891C548.61 352.512 574.197 374.901 590.269 398.141C599.356 411.49 606.439 426.097 611.293 441.498C613.523 448.596 615.272 456.116 618.01 462.975C618.954 465.34 619.895 466.106 622.105 467.326C616.827 470.021 606.146 470.676 599.27 472.879C592.849 470.605 589.299 458.822 587.173 452.725C572.97 411.976 542.611 369.047 495.176 368.648Z"/><path fill="#30469D" transform="matrix(0.292969 0 0 0.292969 0.00195312 0)" d="M399.167 453.402C398.961 444.673 400.328 438.192 402.973 429.855C416.647 386.77 452.552 351.108 498.771 346.979C495.497 347.98 491.825 350.135 488.776 351.781C471.501 361.103 458.19 375.897 449.118 393.203C442.206 406.391 435.974 422.979 434.871 438.008L436.451 440.265L434.796 440.839C431.985 454.611 431.724 464.46 432.109 478.294C425.582 474.465 405.151 484.13 397.214 485.6C398.434 474.909 399.086 464.162 399.167 453.402Z"/><path fill="#902D90" transform="matrix(0.292969 0 0 0.292969 0.00195312 0)" d="M399.985 449.33C407.722 449.265 422.464 442.013 434.796 440.839C431.985 454.611 431.724 464.46 432.109 478.294C425.582 474.465 405.151 484.13 397.214 485.6C398.434 474.909 399.086 464.162 399.167 453.402C399.845 451.753 398.721 451.417 399.985 449.33Z"/><path fill="#F3F2F7" transform="matrix(0.292969 0 0 0.292969 0.00195312 0)" d="M399.985 449.33C407.344 445.689 426.239 440.6 434.871 438.008L436.451 440.265L434.796 440.839C422.464 442.013 407.722 449.265 399.985 449.33Z"/><path fill="#EE519A" transform="matrix(0.292969 0 0 0.292969 0.00195312 0)" d="M498.771 346.979C506.236 346.029 513.061 345.199 520.614 345.079C574.435 344.226 605.236 393.363 620.51 438.7C623.243 446.812 625.583 455.362 626.722 463.985C626.296 466.011 626.681 465.992 625.42 466.844C622.613 457.901 621.036 449.377 617.95 440.133C606.815 407.473 587.361 370.815 554.976 355.687C511.436 335.348 472.022 358.178 454.375 399.857C451.077 407.647 439.313 432.4 441.858 439.572L442.919 439.921C440.305 440.384 439.124 440.728 436.451 440.265L434.871 438.008C435.974 422.979 442.206 406.391 449.118 393.203C458.19 375.897 471.501 361.103 488.776 351.781C491.825 350.135 495.497 347.98 498.771 346.979Z"/><path fill="#FEFEFE" transform="matrix(0.292969 0 0 0.292969 0.00195312 0)" d="M718.846 689.228C723.666 688.935 729.342 689.163 733.756 691.232C736.789 692.653 738.569 694.627 739.67 697.765C743.004 707.273 742.698 741.906 738.016 751.208C736.42 754.379 734.599 755.667 731.3 756.825C725.066 758.661 715.149 758.027 708.505 757.792C708.244 737.637 707.869 709.151 708.977 689.473C712.243 689.496 715.576 689.34 718.846 689.228ZM727.548 746.1C730.026 735.678 729.666 714.049 728.017 702.837C727.661 700.418 723.173 699.985 721.03 699.912C720.839 707.475 719.32 741.734 722.12 746.25C724.303 747.195 725.147 746.769 727.548 746.1Z"/><path fill="#FEFEFE" transform="matrix(0.292969 0 0 0.292969 0.00195312 0)" d="M640.642 690.1C665.051 687.458 661.804 708.938 662.055 725.299C662.238 737.251 663.675 751.752 649.846 756.876C646.25 757.599 642.402 757.616 638.928 756.294C635.105 754.839 632.389 751.882 630.775 748.171C629.458 745.143 628.832 741.838 628.552 738.561C628.077 732.994 628.353 702.738 629.814 699.188C631.725 694.543 636.295 692.042 640.642 690.1ZM647.34 746.446C650.144 741.962 650.793 706.112 646.972 701.327C645.366 700.453 645.141 700.363 643.397 699.8C638.894 707.61 641.108 733.66 641.661 743.237C641.798 745.616 645.518 746.138 647.34 746.446Z"/><path fill="#FEFEFE" transform="matrix(0.292969 0 0 0.292969 0.00195312 0)" d="M392.075 689.011C395.936 688.995 399.796 689.128 403.646 689.41C406.424 700.135 408.54 711.908 411.906 722.354C412.233 720.727 412.03 713.519 412.027 711.217C411.972 703.932 412.035 696.646 412.218 689.363C416.148 689.227 420.114 689.324 424.049 689.38C424.286 704.18 424.403 718.982 424.401 733.783C424.413 739.071 424.775 752.649 423.723 756.896C422.422 758.093 422.807 757.714 420.625 757.92L411.774 757.975C409.569 745.874 407.792 734.246 403.643 722.622C403.468 734.719 403.275 745.708 403.433 757.873L391.02 757.929L390.925 717.829C390.922 710.904 390.664 695.492 392.075 689.011Z"/><path fill="#FEFEFE" transform="matrix(0.292969 0 0 0.292969 0.00195312 0)" d="M266.506 689.421L277.583 689.506C277.959 703.277 278.069 717.053 277.914 730.828C277.903 738.583 278.17 749.681 277.476 757.169C276.396 758.215 276.625 757.866 274.625 757.896L265.662 757.94C262.597 745.785 261.562 734.008 257.802 721.597C256.881 732.415 257.013 746.743 257.036 757.641C252.455 757.905 249.524 757.879 244.932 757.657C244.228 735.613 244.836 711.586 245.007 689.392C249.033 689.569 253.741 689.475 257.821 689.496C259.351 699.198 261.346 711.788 265.327 720.612C265.696 710.899 264.811 698.553 266.506 689.421Z"/><path fill="#FEFEFE" transform="matrix(0.292969 0 0 0.292969 0.00195312 0)" d="M355.989 689.255L356.527 689.225C369.996 688.597 384.997 687.73 384.846 705.962C384.787 713.003 383.029 716.158 378.233 721.042C386.466 731.298 384.168 744.904 383.867 757.947L371.629 757.904C371.383 752.18 371.533 745.37 371.536 739.574C371.597 736.843 372.38 722.632 365.998 726.316C363.809 731.266 364.515 751.422 364.546 757.938L351.975 757.958C351.632 744.508 352.005 730.52 351.873 717.021C351.822 711.763 351.537 694.776 352.393 690.344C353.731 689.13 353.749 689.514 355.989 689.255ZM370.925 714.34C373.83 707.918 374.466 702.748 366.952 700.004C366.604 699.877 366.254 699.756 365.902 699.639C364.633 705.208 361.227 715.905 370.925 714.34Z"/><path fill="#FEFEFE" transform="matrix(0.292969 0 0 0.292969 0.00195312 0)" d="M528.756 689.232C533.956 689.161 540.646 689.028 544.802 692.453C553.746 699.826 550.369 713.743 543.959 721.34C551.534 730.335 549.247 745.843 549.046 757.837L537 757.933L536.93 732.364C536.526 729.722 535.963 725.022 532.197 726.008C528.635 730.3 529.839 751.401 529.939 757.893C525.901 757.805 521.684 757.889 517.632 757.91C517.041 741.387 517.674 724.56 517.452 708.008C517.375 702.264 517.255 695.12 518.031 689.49C521.606 689.425 525.182 689.34 528.756 689.232ZM536.285 714.563C538.969 707.641 539.874 701.405 531.138 699.762C529.29 705.893 526.976 714.555 536.285 714.563Z"/><path fill="#FEFEFE" transform="matrix(0.292969 0 0 0.292969 0.00195312 0)" d="M669.619 689.48C681.755 689.186 700.957 686.002 701.938 702.988C702.442 711.731 701.187 714.729 695.758 721.267C702.172 728.409 701.041 733.498 701.108 742.501C701.145 747.593 701.026 752.731 700.975 757.826C696.947 757.687 692.581 757.78 688.526 757.789L688.503 743.417C688.68 738.957 690.614 726.471 684.114 726.065C680.19 729.556 681.523 751.65 681.606 757.818C677.817 757.574 673.349 757.737 669.501 757.781C669.26 735.254 669.46 712.029 669.619 689.48ZM688.736 714.286C690.679 706.921 691.686 700.936 682.392 700.209C681.766 705.215 679.302 713.922 686.711 714.261C687.386 714.287 688.061 714.295 688.736 714.286Z"/><path fill="#30469D" transform="matrix(0.292969 0 0 0.292969 0.00195312 0)" d="M626.722 463.985C627.979 474.603 629.131 485.234 630.181 495.876C630.749 507.724 631.035 520.148 626.864 531.408C625.503 528.435 621.71 528.525 618.958 528.459C615.41 526.627 612.371 523.424 607.6 521.131C605.008 518.119 602.393 515.982 599.296 513.536C600.525 507.116 601.363 500.628 601.807 494.107C601.708 486.672 601.521 479.999 599.27 472.879C606.146 470.676 616.827 470.021 622.105 467.326C623.211 467.146 624.306 466.936 625.42 466.844C626.681 465.992 626.296 466.011 626.722 463.985Z"/><path fill="#902D90" transform="matrix(0.292969 0 0 0.292969 0.00195312 0)" d="M626.722 463.985C627.979 474.603 629.131 485.234 630.181 495.876C623.519 496.164 609.233 497.737 602.718 495.764C601.984 495.542 602.076 495.045 601.807 494.107C601.708 486.672 601.521 479.999 599.27 472.879C606.146 470.676 616.827 470.021 622.105 467.326C623.211 467.146 624.306 466.936 625.42 466.844C626.681 465.992 626.296 466.011 626.722 463.985Z"/><path fill="#FEFEFE" transform="matrix(0.292969 0 0 0.292969 0.00195312 0)" d="M602.738 690.088C603.825 690.016 604.915 689.991 606.005 690.013C622.684 690.381 623.01 702.39 622.69 715.405L610.509 715.511C610.553 712.639 611.547 698.971 605.351 700.99C600.073 706.604 600.04 739.882 604.839 745.537C612.263 748.693 610.394 732.978 611.112 729.458C614.98 728.785 619.115 728.78 623.025 728.846C623.119 737.277 623.808 753.334 614.172 756.373C591.952 763.087 589.103 745.242 589.994 728.128C590.695 714.664 585.197 695.447 602.738 690.088Z"/><path fill="#FEFEFE" transform="matrix(0.292969 0 0 0.292969 0.00195312 0)" d="M760.207 689.619C774.51 688.512 777.331 695.099 779.353 707.549L767.706 707.646C766.611 704.347 765.182 699.672 760.601 702.146C757.31 707.902 766.087 715.543 770.241 719.444C780.35 728.939 784.183 742.875 774.456 754.273C771.655 757.556 766.059 757.607 761.891 757.469C747.525 754.242 747.449 746.165 747.489 733.552L758.955 733.395C759.107 737.229 759.6 745.348 764.176 746.528C765.264 746.027 765.789 745.681 766.2 744.425C772.63 724.782 738.719 719.807 749.344 697.45C751.588 692.727 755.549 691.076 760.207 689.619Z"/><path fill="#FEFEFE" transform="matrix(0.292969 0 0 0.292969 0.00195312 0)" d="M557.732 689.549C565.771 689.297 574.905 689.503 583.03 689.498C583.017 693.169 582.932 696.882 582.878 700.558L569.576 700.664C569.348 706.451 569.29 710.132 569.621 715.951C573.786 716.002 578.344 716.296 582.536 716.481L582.465 727.583C577.978 727.566 574.274 727.79 569.803 728.093C569.715 728.509 569.634 728.927 569.559 729.347C568.674 734.371 567.936 741.087 570.931 745.413C575.208 745.599 579.744 745.621 584.045 745.714L584.081 757.868C574.88 758.038 565.678 758.018 556.478 757.808C556.283 746.815 555.207 698.038 557.732 689.549Z"/><path fill="#FEFEFE" transform="matrix(0.292969 0 0 0.292969 0.00195312 0)" d="M327.458 689.233C333.151 689.314 338.845 689.309 344.538 689.218L344.539 700.962L331.023 700.979L331.084 716.147L343.976 716.481L344.009 727.628C339.722 727.637 335.321 727.805 331.026 727.92C331.027 733.753 331.087 739.586 331.206 745.417L341.038 745.618L345.581 745.97L345.798 757.868C336.665 758.055 327.413 758.219 318.3 757.533C317.533 749.928 318.098 739.417 318.032 731.502C317.914 717.464 317.855 703.529 318.513 689.497L327.458 689.233Z"/><path fill="#FEFEFE" transform="matrix(0.292969 0 0 0.292969 0.00195312 0)" d="M432.45 689.449L458.472 689.439L458.486 700.987L445.011 701.036L445.107 716.067C449.384 716.246 453.734 716.339 458.019 716.472L458.038 727.589C453.712 727.787 449.336 727.903 445.003 728.052C445.018 733.858 445.074 739.664 445.171 745.469C449.979 745.473 454.786 745.636 459.584 745.959L459.568 757.792C450.911 758.247 441.229 757.96 432.51 757.815C431.809 747.872 432.304 737.857 432.397 727.888L432.45 689.449Z"/><path fill="#FEFEFE" transform="matrix(0.292969 0 0 0.292969 0.00195312 0)" d="M283.558 689.443C293.153 689.325 302.748 689.331 312.343 689.46C312.531 693.081 312.417 696.983 312.378 700.631C309.922 700.829 307.088 700.911 304.598 701.04L304.543 749.617L304.452 758.008L291.983 757.974C291.442 739.93 291.975 719.482 291.937 701.213L283.886 700.861C283.487 697.12 283.564 693.216 283.558 689.443Z"/><path fill="#FEFEFE" transform="matrix(0.292969 0 0 0.292969 0.00195312 0)" d="M471.052 689.23C477.985 688.878 485.603 688.999 492.532 689.237L492.559 700.531C489.931 700.566 487.145 700.821 484.51 701.006C484.503 719.844 484.853 739.007 484.41 757.785C481.239 758.081 475.424 757.931 472.05 757.949C471.612 738.915 472.472 720.361 471.928 701.055L463.546 700.99C463.474 697.219 463.604 693.267 463.672 689.479L471.052 689.23Z"/><path fill="#FEFEFE" transform="matrix(0.292969 0 0 0.292969 0.00195312 0)" d="M226.023 689.003L237.511 689.501C238.294 710.861 237.745 736.273 237.499 757.96L225.552 758.037L225.561 718.996C225.58 709.014 225.367 698.949 226.023 689.003Z"/></svg>