<?xml version="1.0" encoding="utf-8" ?><svg xmlns="http://www.w3.org/2000/svg" xmlns:xlink="http://www.w3.org/1999/xlink" width="32" height="32" viewBox="0 0 32 32"><path transform="scale(0.0296296 0.0296296)" d="M0 0L1080 0L1080 1080L0 1080L0 0Z"/><path transform="scale(0.0296296 0.0296296)" d="M524.82 366.431C536.076 364.735 547.836 363.318 559.204 364.695C574.493 366.548 593.993 372.754 605.01 384.168C628.888 403.406 645.227 434.853 654.585 463.66C656.935 470.894 659.741 479.825 660.59 487.3C660.762 488.873 660.903 490.449 661.011 492.027L659.793 492.706C657.974 492.543 658.003 492.556 656.201 492.891C649.725 496.403 638.123 495.751 632.532 498.88C634.802 506.763 635.092 514.531 634.973 522.714C634.239 527.678 633.087 536.854 631.77 541.477C635.462 544.023 637.568 545.871 640.602 549.245C644.636 551.072 648.954 554.774 652.76 557.465C656.063 557.411 658.83 557.065 661.119 559.908C660.093 563.683 659.677 565.894 659.084 569.775C660.584 576.924 661.396 581.616 661.686 588.894C661.885 591.22 662.291 594.666 662.303 596.908C662.193 627.158 633.283 664.782 604.499 673.708C599.547 675.521 590.681 677.075 585.409 677.181C577.419 678.83 566.201 675.377 559.142 671.928C556.048 670.415 551.61 668.362 548.297 667.793C546.515 670.275 544.198 673.096 541.676 674.871C535.599 680.084 530.612 685.549 522.152 687.25C507.196 690.255 495.051 684.822 482.665 677.403C484.779 677.228 486.457 676.994 488.557 676.673C457.174 673.989 432.446 642.702 427.305 613.221C426.083 606.212 426.751 598.832 425.324 591.713C423.414 584.215 423.48 568.902 425.559 561.535C426.56 555.949 427.085 555.278 425.229 549.904C415.934 533.511 415.988 529.374 419.467 511.631C420.438 499.476 421.615 485.983 421.266 473.842C420.259 469.707 423.151 460.531 424.352 456.42C431.347 432.481 444.779 410.681 463.381 394.012C476.609 382.084 492.482 373.469 509.691 368.878C514.243 367.617 520.096 366.158 524.82 366.431Z"/><path fill="#8F2D90" transform="scale(0.0296296 0.0296296)" d="M419.467 511.631C421.219 512.413 429.659 508.688 431.992 507.882C438.674 505.573 444.666 504.358 451.639 503.373L452.693 501.565C453.515 503.538 452.856 502.887 454.46 503.829L455.416 503.799C456.106 509.777 457.329 523.78 460.34 528.486C460.15 526.617 459.843 524.312 459.799 522.474C468.748 519.352 476.957 517.524 487.775 520.23C516.339 527.376 538.28 553.027 552.676 577.608C552.712 577.715 552.749 577.823 552.785 577.93C553.93 578.929 554.633 579.918 555.879 580.12C562.447 568.346 579.934 553.289 591.747 546.916C605.921 539.269 616.351 536.944 631.77 541.477C635.462 544.023 637.568 545.871 640.602 549.245C644.636 551.072 648.954 554.774 652.76 557.465C656.063 557.411 658.83 557.065 661.119 559.908C660.093 563.683 659.677 565.894 659.084 569.775C660.584 576.924 661.396 581.616 661.686 588.894C661.885 591.22 662.291 594.666 662.303 596.908C662.193 627.158 633.283 664.782 604.499 673.708C599.547 675.521 590.681 677.075 585.409 677.181C577.419 678.83 566.201 675.377 559.142 671.928C556.048 670.415 551.61 668.362 548.297 667.793C546.515 670.275 544.198 673.096 541.676 674.871C535.599 680.084 530.612 685.549 522.152 687.25C507.196 690.255 495.051 684.822 482.665 677.403C484.779 677.228 486.457 676.994 488.557 676.673C457.174 673.989 432.446 642.702 427.305 613.221C426.083 606.212 426.751 598.832 425.324 591.713C423.414 584.215 423.48 568.902 425.559 561.535C426.56 555.949 427.085 555.278 425.229 549.904C415.934 533.511 415.988 529.374 419.467 511.631Z"/><path fill="#FEFEFE" transform="scale(0.0296296 0.0296296)" d="M419.467 511.631C421.219 512.413 429.659 508.688 431.992 507.882C438.674 505.573 444.666 504.358 451.639 503.373L452.693 501.565C453.515 503.538 452.856 502.887 454.46 503.829L455.416 503.799C456.106 509.777 457.329 523.78 460.34 528.486L461.255 532.941C461.478 534.863 461.449 536.303 462.756 537.759C472.754 536.746 491.198 549.02 498.672 555.19C523.084 575.343 543.177 609.551 546.486 641.257C547.133 647.457 547.107 657.088 545.431 663.017C546.679 664.774 547.015 665.038 548.649 666.498L548.297 667.793C546.515 670.275 544.198 673.096 541.676 674.871C535.599 680.084 530.612 685.549 522.152 687.25C507.196 690.255 495.051 684.822 482.665 677.403C484.779 677.228 486.457 676.994 488.557 676.673C457.174 673.989 432.446 642.702 427.305 613.221C426.083 606.212 426.751 598.832 425.324 591.713C423.414 584.215 423.48 568.902 425.559 561.535C426.56 555.949 427.085 555.278 425.229 549.904C415.934 533.511 415.988 529.374 419.467 511.631Z"/><path fill="#30469C" transform="scale(0.0296296 0.0296296)" d="M419.467 511.631C421.219 512.413 429.659 508.688 431.992 507.882C438.674 505.573 444.666 504.358 451.639 503.373L452.693 501.565C453.515 503.538 452.856 502.887 454.46 503.829L455.416 503.799C456.106 509.777 457.329 523.78 460.34 528.486L461.255 532.941C461.478 534.863 461.449 536.303 462.756 537.759C463.22 540.611 463.924 544.374 461.023 546.17L460.642 543.989C450.827 549.941 438.035 550.506 426.906 549.614C425.955 549.537 426.278 549.557 425.229 549.904C415.934 533.511 415.988 529.374 419.467 511.631Z"/><path fill="#131A52" transform="scale(0.0296296 0.0296296)" d="M451.989 517.112L452.853 518.118C452.949 523.541 455.516 535.229 456.598 541.227C454.117 538.89 451.737 521.072 451.989 517.112Z"/><path fill="#F2F0F4" transform="scale(0.0296296 0.0296296)" d="M425.559 561.535L426.721 562.442L426.429 563.461C425.781 571.358 425.909 581.062 426.428 589.046C426.295 590.619 426.351 590.521 425.324 591.713C423.414 584.215 423.48 568.902 425.559 561.535Z"/><path fill="#CF6391" transform="scale(0.0296296 0.0296296)" d="M545.431 663.017C546.679 664.774 547.015 665.038 548.649 666.498L548.297 667.793C546.515 670.275 544.198 673.096 541.676 674.871L545.431 663.017Z"/><path fill="#403F41" transform="scale(0.0296296 0.0296296)" d="M426.428 589.046C425.909 581.062 425.781 571.358 426.429 563.461C427.443 571.411 427.468 579.457 426.505 587.414C426.393 588.307 426.433 587.917 426.428 589.046Z"/><path fill="#ED509A" transform="scale(0.0296296 0.0296296)" d="M432.638 594.731C436.46 583.956 448.506 581.692 458.163 585.644C472.116 591.353 482.818 605.95 488.427 619.501C492.883 630.265 496.532 649.338 488.689 659.2C471.57 679.558 445.611 652.866 437.861 636.832C431.074 622.792 427.88 609.89 432.638 594.731Z"/><path transform="scale(0.0296296 0.0296296)" d="M432.638 594.731C433.123 600.056 431.828 605.761 432.486 611.358C435.195 634.416 453.207 663.609 479.167 663.47C482.444 663.452 485.763 659.362 488.689 659.2C471.57 679.558 445.611 652.866 437.861 636.832C431.074 622.792 427.88 609.89 432.638 594.731Z"/><path fill="#30469C" transform="scale(0.0296296 0.0296296)" d="M467.696 561.223C491.82 571.613 510.775 591.236 520.324 615.704C525.033 627.593 527.525 638.909 525.838 651.622C523.432 669.818 513.872 675.369 496.631 675.505C499.22 673.587 504.131 670.127 506.053 667.634C506.02 661.431 507.805 654.557 513.815 651.632C514.389 648.506 514.794 634.98 513.484 632.303C512.827 633.702 512.914 634.115 512.694 635.669C512.58 632.493 513.465 629.372 512.818 626.955L512.302 626.705L511.31 627.276C509.654 622.745 511.125 621.023 507.938 613.566C498.603 591.722 479.579 580.784 467.696 561.223Z"/><path fill="#8F2D90" transform="scale(0.0296296 0.0296296)" d="M506.617 667.62C514.107 670.816 522.423 656.471 525.838 651.622C523.432 669.818 513.872 675.369 496.631 675.505C499.22 673.587 504.131 670.127 506.053 667.634L506.617 667.62Z"/><path fill="#F2F0F4" transform="scale(0.0296296 0.0296296)" d="M506.053 667.634C506.02 661.431 507.805 654.557 513.815 651.632C512.335 658.299 510.883 662.27 506.617 667.62L506.053 667.634Z"/><path fill="#ED509A" transform="scale(0.0296296 0.0296296)" d="M555.879 580.12C562.447 568.346 579.934 553.289 591.747 546.916C605.921 539.269 616.351 536.944 631.77 541.477C635.462 544.023 637.568 545.871 640.602 549.245C646.853 568.55 643.542 586.149 634.325 604.136C622.837 626.558 600.523 649.265 576.183 657.365C571.015 659.085 565.634 659.896 560.285 660.638C561.969 658.419 565.515 654.222 565.625 651.504C563.279 647.448 565.598 642.945 566.003 638.21C566.841 628.397 566.227 615.679 562.917 606.412L564.22 603.077C563.565 600.877 562.141 597.216 562.608 595.181C560.437 590.129 558.194 585.108 555.879 580.12Z"/><path fill="#30469C" transform="scale(0.0296296 0.0296296)" d="M562.608 595.181C568.425 586.764 572.092 580.277 579.594 572.789C590.799 561.606 614.103 548.279 619.421 572.573C618.111 575.473 618.746 574.945 615.796 576.258C612.554 577.702 608.036 578.735 605.038 580.486C585.044 592.165 574.933 614.13 569.753 635.706C567.816 631.444 568.549 623.881 567.66 618.529C566.618 612.255 566.059 609.309 564.22 603.077C563.565 600.877 562.141 597.216 562.608 595.181Z"/><path transform="scale(0.0296296 0.0296296)" d="M569.753 635.706C574.933 614.13 585.044 592.165 605.038 580.486C608.036 578.735 612.554 577.702 615.796 576.258C618.746 574.945 618.111 575.473 619.421 572.573C621.286 599.946 597.987 633.34 569.753 635.706Z"/><path fill="#BD377D" transform="scale(0.0296296 0.0296296)" d="M631.782 592.455L632.444 592.671L632.593 593.566C627.691 605.904 623.785 611.642 615.988 622.466L615.048 622.433C615.389 620.723 619.991 614.93 621.365 612.848C626.154 605.589 628.695 600.495 631.782 592.455Z"/><path fill="#BD377D" transform="scale(0.0296296 0.0296296)" d="M622.246 545.668C634.879 547.621 636.964 564.779 637.071 575.011C633.838 572.498 640.384 558.496 622.246 545.668Z"/><path fill="#BD377D" transform="scale(0.0296296 0.0296296)" d="M599.865 637.065L599.863 637.886C595.596 642.78 586.469 647.28 580.567 650.346C580.565 650.31 580.564 650.274 580.562 650.238C580.683 649.961 580.804 649.683 580.926 649.405C583.297 648.19 586.862 646.104 588.974 644.825C592.988 642.393 596.272 639.977 599.865 637.065Z"/><path fill="#ED509A" transform="scale(0.0296296 0.0296296)" d="M585.409 677.181C583.565 677.133 582.779 677.164 580.942 676.743C581.177 675.711 583.883 675.175 585.158 674.796C594.003 672.216 602.36 668.191 609.892 662.885C633.215 646.74 651.679 620.279 658.688 592.287C659.193 590.272 659.194 589.42 660.761 588.376L661.686 588.894C661.885 591.22 662.291 594.666 662.303 596.908C662.193 627.158 633.283 664.782 604.499 673.708C599.547 675.521 590.681 677.075 585.409 677.181Z"/><path fill="#FEFEFE" transform="scale(0.0296296 0.0296296)" d="M662.303 596.908C662.193 627.158 633.283 664.782 604.499 673.708C605.022 671.993 614.236 666.81 616.656 665.118C625.192 659.116 632.839 651.94 639.37 643.803C647.228 634.206 653.301 623.229 657.668 611.627C659.132 607.739 660.339 600.107 662.303 596.908Z"/><path fill="#ED509A" transform="scale(0.0296296 0.0296296)" d="M461.255 532.941C512.115 539.246 556.147 605.554 550.993 655.015C550.611 658.685 549.583 662.913 548.649 666.498C547.015 665.038 546.679 664.774 545.431 663.017C547.107 657.088 547.133 647.457 546.486 641.257C543.177 609.551 523.084 575.343 498.672 555.19C491.198 549.02 472.754 536.746 462.756 537.759C461.449 536.303 461.478 534.863 461.255 532.941Z"/><path fill="#CF6391" transform="scale(0.0296296 0.0296296)" d="M552.785 577.93C553.93 578.929 554.633 579.918 555.879 580.12C558.194 585.108 560.437 590.129 562.608 595.181C562.141 597.216 563.565 600.877 564.22 603.077L562.917 606.412C560.814 599.718 552.382 582.17 552.785 577.93Z"/><path fill="#FEFEFE" transform="scale(0.0296296 0.0296296)" d="M652.76 557.465C656.063 557.411 658.83 557.065 661.119 559.908C660.093 563.683 659.677 565.894 659.084 569.775C657.174 566.771 654.393 560.786 652.76 557.465Z"/><path fill="#601D64" transform="scale(0.0296296 0.0296296)" d="M559.31 660.722L559.727 661.071C559.318 662.503 556.765 664.042 555.432 665.038L554.987 664.406C556.18 662.549 557.417 661.985 559.31 660.722Z"/><path fill="#FEFEFE" transform="scale(0.0296296 0.0296296)" d="M524.82 366.431C536.076 364.735 547.836 363.318 559.204 364.695C574.493 366.548 593.993 372.754 605.01 384.168C628.888 403.406 645.227 434.853 654.585 463.66C656.935 470.894 659.741 479.825 660.59 487.3C660.762 488.873 660.903 490.449 661.011 492.027L659.793 492.706C657.974 492.543 658.003 492.556 656.201 492.891C649.725 496.403 638.123 495.751 632.532 498.88C629.511 497.125 627.563 496.207 625.85 493.056C622.125 486.147 620.04 478.302 617.158 470.967C600.935 429.669 570.524 389.157 522.125 388.831C516.515 391.648 511.728 396.677 507.953 401.608C502.889 408.291 498.64 415.555 495.295 423.244C488.412 439.47 486.081 460.716 465.599 464.117C464.241 464.244 462.335 464.52 461.041 464.394L458.497 465.051C456.91 471.474 455.622 482.085 455.567 488.67C452.219 492.502 453.976 496.128 452.693 501.565L451.639 503.373C444.666 504.358 438.674 505.573 431.992 507.882C429.659 508.688 421.219 512.413 419.467 511.631C420.438 499.476 421.615 485.983 421.266 473.842C420.259 469.707 423.151 460.531 424.352 456.42C431.347 432.481 444.779 410.681 463.381 394.012C476.609 382.084 492.482 373.469 509.691 368.878C514.243 367.617 520.096 366.158 524.82 366.431Z"/><path fill="#30469C" transform="scale(0.0296296 0.0296296)" d="M522.125 388.831C529.232 383.842 535.005 380.173 543.558 378.086C576.409 370.068 604.932 394.471 622.307 419.547C632.168 433.948 639.837 449.732 645.061 466.385C647.425 473.952 649.232 482.017 652.057 489.387C652.628 490.877 654.806 492.04 656.201 492.891C649.725 496.403 638.123 495.751 632.532 498.88C629.511 497.125 627.563 496.207 625.85 493.056C622.125 486.147 620.04 478.302 617.158 470.967C600.935 429.669 570.524 389.157 522.125 388.831Z"/><path fill="#30469C" transform="scale(0.0296296 0.0296296)" d="M421.266 473.842C420.259 469.707 423.151 460.531 424.352 456.42C431.347 432.481 444.779 410.681 463.381 394.012C476.609 382.084 492.482 373.469 509.691 368.878C514.243 367.617 520.096 366.158 524.82 366.431C518.518 369.604 512.71 372.469 506.557 376.683C481.221 394.033 465.978 424.581 459.613 453.984C459.059 456.541 459.134 459.744 458.583 462.132L461.041 464.394L458.497 465.051C456.91 471.474 455.622 482.085 455.567 488.67C452.219 492.502 453.976 496.128 452.693 501.565L451.639 503.373C444.666 504.358 438.674 505.573 431.992 507.882C429.659 508.688 421.219 512.413 419.467 511.631C420.438 499.476 421.615 485.983 421.266 473.842Z"/><path fill="#8F2D90" transform="scale(0.0296296 0.0296296)" d="M421.71 474.018C429.866 474.376 446.098 465.483 458.497 465.051C456.91 471.474 455.622 482.085 455.567 488.67C452.219 492.502 453.976 496.128 452.693 501.565L451.639 503.373C444.666 504.358 438.674 505.573 431.992 507.882C429.659 508.688 421.219 512.413 419.467 511.631C420.438 499.476 421.615 485.983 421.266 473.842L421.71 474.018Z"/><path fill="#F2F0F4" transform="scale(0.0296296 0.0296296)" d="M458.583 462.132L461.041 464.394L458.497 465.051C446.098 465.483 429.866 474.376 421.71 474.018C424.466 472.099 453.954 463.268 458.583 462.132Z"/><defs><linearGradient id="gradient_0" gradientUnits="userSpaceOnUse" x1="571.25726" y1="446.02652" x2="486.12976" y2="395.21808"><stop offset="0" stop-color="#C3678C"/><stop offset="1" stop-color="#F1519D"/></linearGradient></defs><path fill="url(#gradient_0)" transform="scale(0.0296296 0.0296296)" d="M524.82 366.431C536.076 364.735 547.836 363.318 559.204 364.695C574.493 366.548 593.993 372.754 605.01 384.168L604.743 384.821C605.718 386.021 605.896 386.055 606.355 387.494C604.839 386.102 602.879 384.174 600.784 384.12C584.283 373.395 574.391 368.852 554.543 367.539C525.461 365.616 502.645 381.81 487.691 405.913C480.121 418.114 465.287 449.438 465.599 464.117C464.241 464.244 462.335 464.52 461.041 464.394L458.583 462.132C459.134 459.744 459.059 456.541 459.613 453.984C465.978 424.581 481.221 394.033 506.557 376.683C512.71 372.469 518.518 369.604 524.82 366.431Z"/><path fill="#CF6391" transform="scale(0.0296296 0.0296296)" d="M600.784 384.12C602.879 384.174 604.839 386.102 606.355 387.494C605.896 386.055 605.718 386.021 604.743 384.821L605.01 384.168C628.888 403.406 645.227 434.853 654.585 463.66C656.935 470.894 659.741 479.825 660.59 487.3C660.762 488.873 660.903 490.449 661.011 492.027L659.793 492.706C657.377 486.278 655.777 476.511 653.498 469.361C642.762 435.681 628.143 407.193 600.784 384.12Z"/><path fill="#BD377D" transform="scale(0.0296296 0.0296296)" d="M452.693 501.565C453.976 496.128 452.219 492.502 455.567 488.67L455.416 503.799L454.46 503.829C452.856 502.887 453.515 503.538 452.693 501.565Z"/><path fill="#FEFEFE" transform="scale(0.0296296 0.0296296)" d="M757.102 726.924C769.96 726.421 781.578 728.09 781.517 743.215C781.454 758.887 784.214 775.28 779.304 790.616C777.785 795.362 776.315 795.961 772.078 798.07C763.943 800.298 755.628 799.554 747.268 799.167C746.995 787.499 747.243 775.209 747.21 763.487C747.177 751.786 746.94 738.849 747.763 727.273L757.102 726.924Z"/><path transform="scale(0.0296296 0.0296296)" d="M760.564 738.114C768.888 738.311 769.266 741.667 768.928 749.943C768.473 761.091 770.401 776.278 767.444 786.91C764.823 787.639 763.467 788.344 761.064 786.882C758.727 781.143 760.185 746.408 760.564 738.114Z"/><path fill="#FEFEFE" transform="scale(0.0296296 0.0296296)" d="M676.349 727.785C703.373 726.562 697.276 747.865 698.223 768.038C698.813 780.614 698.281 793.483 685.197 798.552C653.649 801.906 665.098 764.011 663.023 744.038C662.203 736.149 668.914 730.286 676.349 727.785Z"/><path transform="scale(0.0296296 0.0296296)" d="M678.261 738.703C680.144 738.676 680.294 738.745 682.063 739.113C687.73 743.236 684.157 776.196 684.324 783.338C684.341 784.04 683.386 786.309 683.025 787.101C680.733 786.924 676.524 786.677 676.433 783.586C676.174 774.835 674.041 745.407 678.261 738.703Z"/><path fill="#FEFEFE" transform="scale(0.0296296 0.0296296)" d="M413.596 726.761C417.753 726.665 421.645 726.798 425.804 726.934C428.869 738.284 430.263 749.395 433.832 760.874C435.166 752.823 434.35 736.466 434.866 727.18C439.059 726.659 442.991 726.781 447.18 727.137C447.526 749.722 447.466 772.719 447.416 795.33C447.411 797.239 447.187 797.859 446.008 799.17C442.459 799.536 437.898 799.355 434.252 799.31C432.5 789.107 430.033 773.04 426.336 763.656C424.873 773.227 425.357 789.011 425.451 799.155C421.109 799.448 416.825 799.351 412.478 799.31C412.355 788.631 411.234 732.476 413.596 726.761Z"/><path fill="#FEFEFE" transform="scale(0.0296296 0.0296296)" d="M282.428 726.803C285.583 726.776 289.458 727.105 292.676 727.3C292.872 733.797 293.181 740.31 293.04 746.806C292.66 764.369 293.301 781.76 292.631 799.327C288.669 799.443 284.264 799.313 280.265 799.278C276.919 786.751 275.7 774.477 272.711 762.571C270.495 774.381 271.083 785.921 271.089 797.937L270.931 798.539C268.753 800.069 261.395 799.088 258.367 798.873C257.493 776.411 258.326 749.942 258.445 727.068L271.867 727.265C273.667 737.524 275.631 750.65 279.466 760.121C281.043 752.429 279.775 741.091 280.375 733.03C280.597 730.04 280.292 728.716 282.428 726.803Z"/><path fill="#FEFEFE" transform="scale(0.0296296 0.0296296)" d="M376.692 726.904C388.22 726.409 405.128 725.017 405.644 741.116C405.944 750.472 405.436 753.716 399.033 760.585C404.948 767.84 405.249 772.236 405.145 781.541C405.078 787.453 404.868 793.418 404.68 799.334C400.616 799.449 396.13 799.297 392.034 799.243C391.71 793.234 391.848 787.151 391.896 781.128C392.087 776.692 393.08 767.627 388.488 765.43C386.207 765.456 387.149 765.088 385.475 766.308C383.806 772.295 384.445 791.995 384.413 799.319C380.149 799.457 375.558 799.343 371.268 799.315C370.918 785.503 371.294 770.987 371.274 757.108C371.265 750.418 370.736 733.521 371.648 727.808C372.973 726.813 374.945 726.98 376.692 726.904Z"/><path transform="scale(0.0296296 0.0296296)" d="M385.855 738.676C395.333 739.584 394.242 746.605 391.242 753.554C381.304 755.489 383.752 744.428 385.855 738.676Z"/><path fill="#FEFEFE" transform="scale(0.0296296 0.0296296)" d="M554.012 726.923C573.359 726.036 583.209 728.875 578.942 751.891C578.209 755.844 576.208 757.847 573.563 760.639C578.73 766.819 579.371 771.21 579.298 779.078C579.237 785.768 579.114 792.49 578.995 799.184C574.943 799.401 570.501 799.351 566.414 799.387C566.375 791.314 566.41 783.242 566.521 775.171C566.461 771.473 566.402 765.947 561.896 765.154L560.732 766.005C557.816 771.414 558.817 791.958 558.839 799.325L545.788 799.381C545.323 788.296 545.584 776.441 545.63 765.259C545.676 753.87 544.928 738.319 546.328 727.187L554.012 726.923Z"/><path transform="scale(0.0296296 0.0296296)" d="M559.764 738.717C560.805 738.74 562.31 738.761 563.296 739.015C564.848 739.405 566.155 740.45 566.878 741.879C568.612 745.284 566.998 750.101 565.877 753.491C555.584 754.807 558.641 745.349 559.764 738.717Z"/><path fill="#FEFEFE" transform="scale(0.0296296 0.0296296)" d="M713.487 726.911C731.893 725.577 742.76 728.358 739.856 750.217C739.314 754.298 736.267 757.608 733.668 760.588C735.365 762.576 737.14 765.126 738.712 767.262C739.555 778.187 739.386 788.228 739.154 799.19C734.921 799.425 730.591 799.305 726.344 799.25C726.048 792.38 726.156 783.685 726.526 776.875C726.628 772.812 726.953 766.097 721.535 765.606C716.923 768.479 719.142 793.151 718.968 799.234C714.818 799.361 710.298 799.253 706.12 799.236C705.888 788.109 706.15 777.084 706.146 765.967C706.141 753.03 705.905 740.255 706.275 727.313L713.487 726.911Z"/><path transform="scale(0.0296296 0.0296296)" d="M719.667 738.848C720.493 738.894 721.317 738.97 722.138 739.074C730.023 740.137 727.776 747.703 726.492 753.118C716.104 755.41 718.847 745.778 719.667 738.848Z"/><path fill="#30469C" transform="scale(0.0296296 0.0296296)" d="M661.011 492.027C662.051 502.318 663.211 512.597 664.489 522.861C664.788 537.071 666.148 546.329 661.119 559.908C658.83 557.065 656.063 557.411 652.76 557.465C648.954 554.774 644.636 551.072 640.602 549.245C637.568 545.871 635.462 544.023 631.77 541.477C633.087 536.854 634.239 527.678 634.973 522.714C635.092 514.531 634.802 506.763 632.532 498.88C638.123 495.751 649.725 496.403 656.201 492.891C658.003 492.556 657.974 492.543 659.793 492.706L661.011 492.027Z"/><path fill="#8F2D90" transform="scale(0.0296296 0.0296296)" d="M661.011 492.027C662.051 502.318 663.211 512.597 664.489 522.861C658.809 523.234 639.011 525.111 634.973 522.714C635.092 514.531 634.802 506.763 632.532 498.88C638.123 495.751 649.725 496.403 656.201 492.891C658.003 492.556 657.974 492.543 659.793 492.706L661.011 492.027Z"/><path fill="#FEFEFE" transform="scale(0.0296296 0.0296296)" d="M634.434 727.865C655.05 726.475 657.691 736.376 656.617 754.403C652.529 754.608 648.065 754.562 643.944 754.601C644.109 749.866 644.956 741.128 640.055 738.644C632.296 739.842 635.106 760.817 634.577 766.774C634.111 772.012 634.131 783.663 638.581 786.986C645.637 786.973 644.321 775.106 644.243 770.399L644.503 769.827C646.85 768.353 653.866 768.874 656.948 768.937C657.375 781.819 657.943 798.014 641.484 799.055C621.333 800.827 622.027 781.867 622.33 767.529C622.633 753.185 617.463 735.269 634.434 727.865Z"/><path fill="#FEFEFE" transform="scale(0.0296296 0.0296296)" d="M802.484 727.332C817.071 726.683 820.382 732.989 822.129 746.172C817.399 746.488 814.103 746.372 809.332 746.176C808.362 742.481 807.14 737.64 802.176 740.185C798.892 744.851 804.22 751.173 807.66 754.143C820.269 765.032 829.091 779.78 817.228 795.216C814.228 799.12 808.58 798.935 803.852 799.094C788.074 795.431 788.309 787.921 788.451 773.634L800.483 773.65C800.473 775.2 800.492 776.75 800.539 778.299C800.659 781.747 802.557 787.885 806.911 787.19C807.426 786.751 807.974 786.287 808.243 785.605C814.723 769.192 792.697 763.362 789.226 749.507C788.044 744.792 788.466 738.315 790.812 734.382C793.529 729.828 797.841 728.507 802.484 727.332Z"/><path fill="#FEFEFE" transform="scale(0.0296296 0.0296296)" d="M591.905 726.859C599.8 726.755 606.891 726.919 614.789 727.21C614.855 731.26 614.735 734.724 614.542 738.776C609.4 738.839 606.037 739.019 600.935 739.599C599.777 745.98 599.885 748.565 600.96 754.893C604.938 755.369 610.162 755.496 614.247 755.709C614.345 759.715 614.234 763.252 614.081 767.263C609.452 767.287 605.695 767.153 601.135 767.986C600.206 772.267 598.716 780.809 601.119 784.991C601.925 786.394 602.782 786.229 604.204 786.459L615.85 786.694C615.947 790.787 615.888 795.063 615.892 799.171C606.624 799.758 596.214 799.42 586.862 799.247C586.467 782.778 586.368 766.303 586.564 749.83C586.649 744.757 586.725 732.843 587.785 728.206C589.376 726.878 589.494 727.254 591.905 726.859Z"/><path fill="#FEFEFE" transform="scale(0.0296296 0.0296296)" d="M341.719 726.917C348.147 726.677 357.041 726.684 363.404 727.009C363.444 731.059 363.358 735.223 363.325 739.283L349.192 739.457C349.01 744.65 349.115 749.932 349.159 755.135C353.633 755.504 358.224 755.567 362.72 755.69L362.75 767.253C358.346 767.348 353.697 767.643 349.277 767.85C349.016 773.956 349.14 780.09 349.192 786.203L354.906 786.417L364.357 786.814C364.506 790.865 364.509 795.09 364.572 799.157C354.968 799.61 345.346 799.539 335.75 798.944C334.884 789.824 335.644 774.027 335.617 764.329C335.594 756.382 334.796 734.464 336.107 727.681C337.422 726.899 340.044 726.993 341.719 726.917Z"/><path fill="#FEFEFE" transform="scale(0.0296296 0.0296296)" d="M471.735 726.92C476.366 726.758 478.977 726.836 483.607 727.216L483.582 739.144C478.832 739.253 474.084 739.451 469.341 739.739C469.149 744.836 469.285 750.031 469.351 755.139C473.835 755.466 478.49 755.57 482.994 755.732L482.997 767.266C478.52 767.36 473.911 767.611 469.426 767.798C469.197 774.19 469.287 779.822 469.429 786.206C474.634 786.247 479.444 786.518 484.626 786.821C484.685 790.865 484.637 795.021 484.64 799.077C476.235 799.868 464.649 799.417 456.174 799.252C455.225 786.618 456.165 774.36 456.123 761.816C456.083 749.891 455.575 739.217 456.133 727.255C461.335 727.203 466.536 727.091 471.735 726.92Z"/><path fill="#FEFEFE" transform="scale(0.0296296 0.0296296)" d="M299.033 727.209C309.081 726.996 319.131 726.997 329.179 727.211C329.502 731.825 329.499 734.271 329.192 738.86C326.803 739.213 323.632 739.31 321.164 739.457C320.897 756.805 320.89 774.157 321.141 791.505C321.134 794.055 320.948 796.832 320.83 799.397L307.944 799.386C307.497 779.448 308.651 759.454 307.644 739.547L299.013 739.109L299.033 727.209Z"/><path fill="#FEFEFE" transform="scale(0.0296296 0.0296296)" d="M497.835 726.92C504.003 726.63 513.312 726.691 519.402 727.049C519.511 730.815 519.436 734.884 519.433 738.677C516.636 739.095 513.835 739.293 511.017 739.535C510.397 759.647 512.115 779.124 510.661 799.148C506.508 799.436 502.17 799.317 497.993 799.277C497.311 779.088 499.069 760.041 497.739 739.545L488.966 739.224C488.896 734.817 488.96 731.659 489.268 727.271L497.835 726.92Z"/><path fill="#FEFEFE" transform="scale(0.0296296 0.0296296)" d="M238.426 726.711C242.935 726.695 245.793 726.792 250.266 727.238C251.31 743.213 250.447 760.506 250.403 776.599C250.39 781.437 250.861 795.501 250.195 799.385L237.997 799.388C237.751 779.166 238.339 758.944 238.031 738.721C237.97 734.719 238.212 730.706 238.426 726.711Z"/></svg>